<?xml version="1.0" encoding="utf-8"?>
<!-- Generator: Adobe Illustrator 23.0.1, SVG Export Plug-In . SVG Version: 6.00 Build 0)  -->
<svg version="1.1" id="Capa_1" xmlns="http://www.w3.org/2000/svg" xmlns:xlink="http://www.w3.org/1999/xlink" x="0px" y="0px"
	 viewBox="0 0 777.3 172.8" style="enable-background:new 0 0 777.3 172.8;" xml:space="preserve">
<style type="text/css">
	.st0{fill:#ABBFB5;}
	.st1{fill:#F6F8F7;}
</style>
<g id="Grupo_864" transform="translate(-660.333 -6366)">
	<path id="Trazado_2000" class="st0" d="M1433.2,6383.3c-4.1,7-8.5,13.9-12.9,20.5c-2.5,3.7-5.4,6.9-8.1,10.4
		c-8.1,10.4-15.6,20.1-26.1,28.1c-6.4,4.9-31.7,23.3-60.8,29.1c-11.6,3.2-23.4,5.2-35.3,5c-4.1-0.1-8.2-0.4-12.4-0.7
		c-5.9-0.5-11.9-0.7-17.7-1.8c-14-2.7-27.4-8.4-40.8-14.3c-8.1-3.6-16.4-6.7-24.9-9.2c-8.9-2.6-18.3-3.2-27.4-1.8
		c-7.1,1.1-14.3,2.2-21.4,3.7c-3.9,1-7.8,2.3-11.5,3.8c-7.8,2.8-15.6,5.7-23.4,8.6c-18.1,6.8-35.7,15-52.5,24.6
		c-7.8,4.4-37.6,17.6-50.3,22.5c-14.5,5.7-29.2,10.5-44.2,14.5c-13.5,3.6-27.3,6.5-41.2,8.5c-10.6,1.5-21.1,2.9-31.8,3.6
		c-10.6,0.6-21.3,0.3-32,0.3c-2.8,0-5.6-0.3-8.4-0.7c-5.7-0.8-11.3-1.8-17-2.6c-10.7-1.5-21.3-4.1-31.5-7.8
		c-16.7-5.9-32.4-14.3-46.5-24.8c-11.3-8.3-46.8-27.1-79.8-83.2c-5.7-12.3-11.1-24.7-13.8-38.2c-0.4-2.1-0.8-13.2-1.2-15.3
		l779.9,0.4C1438.8,6369.2,1434.8,6380.6,1433.2,6383.3z"/>
	<path id="Trazado_2001" class="st1" d="M1422.4,6373.7c-4,6.5-8.2,12.9-12.5,19.1c-2.4,3.5-5.3,6.5-7.9,9.7
		c-7.9,9.7-17,18.4-27.1,25.7c-6.1,4.5-12.7,8.2-19.2,12.1c-11.8,6.9-24.4,12.1-37.6,15.4c-11.2,3-22.6,4.9-34.1,4.6
		c-4-0.1-8-0.4-11.9-0.7c-5.7-0.5-11.5-0.6-17.1-1.7c-13.6-2.5-26.5-7.8-39.4-13.3c-7.8-3.4-15.9-6.2-24-8.6
		c-8.6-2.4-17.6-3-26.5-1.7c-6.9,1-13.8,2.1-20.6,3.5c-3.8,0.9-7.5,2.1-11.1,3.6c-7.5,2.6-15,5.3-22.6,8
		c-17.5,6.3-34.4,13.9-50.7,22.9c-7.5,4.1-37.3,16.3-48.6,21c-14,5.3-28.2,9.8-42.7,13.5c-13.1,3.4-26.4,6-39.8,7.9
		c-10.2,1.4-20.4,2.7-30.7,3.3c-10.3,0.6-20.6,0.3-30.9,0.3c-2.7,0-5.4-0.3-8.1-0.6c-5.5-0.7-10.9-1.7-16.4-2.4
		c-10.3-1.4-20.5-3.9-30.4-7.3c-16-5.5-31.2-13.3-44.9-23.1c-11-7.8-21.5-16.1-32.1-24.4c-18.6-14.6-34.6-31.5-45-53.2
		c-5.5-11.5-10.8-23-13.3-35.6c-0.4-2-0.8-3.9-1.2-5.9h750.7C1425.4,6368.6,1423.9,6371.2,1422.4,6373.7z"/>
</g>
</svg>
