<?xml version="1.0" encoding="utf-8"?>
<!-- Generator: Adobe Illustrator 23.0.1, SVG Export Plug-In . SVG Version: 6.00 Build 0)  -->
<svg version="1.1" xmlns="http://www.w3.org/2000/svg" xmlns:xlink="http://www.w3.org/1999/xlink" x="0px" y="0px"
	 viewBox="0 0 234.5 91.2" style="enable-background:new 0 0 234.5 91.2;" xml:space="preserve">
<style type="text/css">
	.st0{display:none;}
	.st1{display:inline;}
	.st2{fill:#443E3D;}
	.st3{font-family:'beloved';}
	.st4{font-size:20px;}
	.st5{fill:#AE4A2A;}
	.st6{fill:#ABBFB5;}
	.st7{enable-background:new    ;}
</style>
<g id="Capa_1" class="st0">
	<g id="Grupo_7024" transform="translate(-265.46 -11.357)" class="st1">
		<text transform="matrix(1 0 0 1 357.003 74.8)" class="st2 st3 st4">Your Surrogacy Community</text>
		<g id="Grupo_6936">
			<path id="Trazado_2766" class="st5" d="M365.7,49.2v2.5h-1.5c-0.9,0.1-1.8-0.2-2.5-0.8c-0.7-0.7-1-1.6-0.9-2.6v-3.9h-1.2V42h1.2
				v-2.4h3V42h2v2.5h-2v3.9c0,0.2,0.1,0.5,0.2,0.6c0.2,0.1,0.5,0.2,0.7,0.2L365.7,49.2z"/>
			<path id="Trazado_2767" class="st5" d="M376.1,43c0.7,0.9,1.1,1.9,1,3.1v5.7h-3v-5.3c0-0.6-0.1-1.1-0.5-1.5c-0.8-0.7-2-0.7-2.7,0
				c-0.4,0.4-0.5,1-0.5,1.5v5.3h-3v-13h3v4.5c0.3-0.4,0.7-0.8,1.2-1c0.6-0.3,1.2-0.4,1.8-0.4C374.4,41.8,375.4,42.2,376.1,43"/>
			<path id="Trazado_2768" class="st5" d="M388.4,47.6h-6.8c0,0.5,0.2,1,0.6,1.4c0.3,0.3,0.8,0.5,1.3,0.5c0.7,0,1.3-0.3,1.6-0.9h3.2
				c-0.3,1.3-1.3,2.4-2.5,2.9c-0.7,0.3-1.4,0.5-2.2,0.4c-0.9,0-1.8-0.2-2.6-0.6c-0.7-0.4-1.4-1-1.8-1.8c-0.4-0.8-0.7-1.7-0.6-2.7
				c0-0.9,0.2-1.8,0.6-2.7c0.4-0.7,1-1.4,1.7-1.8c1.6-0.8,3.5-0.8,5.1,0c0.7,0.4,1.3,1,1.7,1.7c0.4,0.8,0.6,1.7,0.6,2.6
				C388.4,47,388.4,47.3,388.4,47.6 M385.3,45.9c0-0.5-0.2-0.9-0.5-1.2c-0.4-0.3-0.8-0.5-1.3-0.5c-0.5,0-0.9,0.1-1.3,0.4
				c-0.4,0.3-0.6,0.8-0.6,1.2L385.3,45.9z"/>
			<path id="Trazado_2769" class="st5" d="M397.9,42.2c0.6-0.3,1.2-0.4,1.8-0.4c0.8,0,1.5,0.2,2.2,0.6c0.7,0.4,1.2,1,1.6,1.8
				c0.8,1.7,0.8,3.6,0,5.3c-0.3,0.7-0.9,1.3-1.6,1.8c-0.7,0.4-1.4,0.6-2.2,0.6c-0.6,0-1.2-0.1-1.8-0.4c-0.5-0.3-0.9-0.6-1.2-1.1v1.4
				h-3v-13h3v4.6C397,42.9,397.4,42.5,397.9,42.2 M400.4,45.1c-0.4-0.4-1-0.7-1.5-0.6c-0.6,0-1.1,0.2-1.5,0.6c-0.8,1-0.8,2.5,0,3.5
				c0.8,0.8,2.1,0.9,3,0.1c0,0,0,0,0.1-0.1c0.4-0.5,0.7-1.1,0.6-1.8C401,46.2,400.8,45.6,400.4,45.1"/>
			<path id="Trazado_2770" class="st5" d="M405.8,40.5c-0.3-0.3-0.5-0.7-0.5-1.1c0-0.4,0.2-0.9,0.5-1.2c0.7-0.6,1.8-0.6,2.6,0
				c0.3,0.3,0.5,0.7,0.5,1.2c0,0.4-0.2,0.9-0.5,1.1c-0.3,0.3-0.8,0.5-1.3,0.5C406.6,41,406.2,40.8,405.8,40.5 M408.6,51.8h-3V42h3
				V51.8z"/>
			<path id="Trazado_2771" class="st5" d="M416.3,42.2c0.5,0.3,0.9,0.6,1.2,1.1V42h3v9.8c0,0.8-0.2,1.7-0.5,2.4
				c-0.4,0.7-0.9,1.3-1.6,1.7c-0.8,0.5-1.8,0.7-2.7,0.6c-1.3,0.1-2.5-0.3-3.5-1c-0.9-0.7-1.5-1.7-1.5-2.8h3c0.1,0.4,0.3,0.7,0.7,0.9
				c0.4,0.2,0.8,0.3,1.3,0.3c0.5,0,1.1-0.2,1.5-0.5c0.4-0.5,0.6-1.1,0.6-1.7v-1.4c-0.3,0.5-0.7,0.8-1.2,1.1
				c-0.6,0.3-1.2,0.4-1.8,0.4c-0.8,0-1.5-0.2-2.2-0.6c-0.7-0.4-1.2-1-1.6-1.8c-0.8-1.7-0.8-3.6,0-5.3c0.3-0.7,0.9-1.3,1.6-1.8
				c0.7-0.4,1.4-0.6,2.2-0.6C415.1,41.8,415.8,42,416.3,42.2 M416.9,45.1c-0.8-0.8-2.1-0.9-3-0.1l-0.1,0.1c-0.4,0.5-0.7,1.1-0.6,1.8
				c0,0.7,0.2,1.3,0.6,1.8c0.8,0.8,2.1,0.9,3,0.1l0.1-0.1C417.7,47.6,417.7,46.1,416.9,45.1"/>
			<path id="Trazado_2772" class="st5" d="M428.2,42.2c0.5,0.3,0.9,0.6,1.2,1.1V42h3v9.8c0,0.8-0.2,1.7-0.5,2.4
				c-0.4,0.7-0.9,1.3-1.6,1.7c-0.8,0.5-1.8,0.7-2.7,0.6c-1.3,0.1-2.5-0.3-3.5-1c-0.9-0.7-1.5-1.7-1.5-2.8h3c0.1,0.4,0.3,0.7,0.7,0.9
				c0.4,0.2,0.8,0.3,1.3,0.3c0.5,0,1.1-0.2,1.5-0.5c0.4-0.5,0.6-1.1,0.6-1.7v-1.4c-0.3,0.5-0.7,0.8-1.2,1.1
				c-0.6,0.3-1.2,0.4-1.8,0.4c-0.8,0-1.5-0.2-2.2-0.6c-0.7-0.4-1.2-1-1.6-1.8c-0.8-1.7-0.8-3.6,0-5.3c0.3-0.7,0.9-1.3,1.6-1.8
				c0.7-0.4,1.4-0.6,2.2-0.6C427,41.8,427.7,42,428.2,42.2 M428.8,45.1c-0.8-0.8-2.1-0.9-3-0.1c0,0,0,0,0,0l-0.1,0.1
				c-0.4,0.5-0.7,1.1-0.6,1.8c0,0.7,0.2,1.3,0.6,1.8c0.8,0.8,2.1,0.9,3,0.1c0,0,0.1-0.1,0.1-0.1C429.6,47.6,429.6,46.1,428.8,45.1"
				/>
			<path id="Trazado_2773" class="st5" d="M443.8,47.6H437c0,0.5,0.2,1,0.6,1.4c0.3,0.3,0.8,0.5,1.3,0.5c0.7,0,1.3-0.3,1.6-0.9h3.2
				c-0.3,1.3-1.3,2.4-2.5,2.9c-0.7,0.3-1.4,0.5-2.2,0.4c-0.9,0-1.8-0.2-2.6-0.6c-0.7-0.4-1.4-1-1.8-1.8c-0.4-0.8-0.7-1.7-0.6-2.7
				c0-0.9,0.2-1.8,0.6-2.7c0.4-0.7,1-1.4,1.7-1.8c1.6-0.8,3.5-0.8,5.1,0c0.7,0.4,1.3,1,1.7,1.7c0.4,0.8,0.6,1.7,0.6,2.6
				C443.8,47,443.8,47.3,443.8,47.6 M440.8,45.9c0-0.5-0.2-0.9-0.5-1.2c-0.4-0.3-0.8-0.5-1.3-0.5c-0.5,0-0.9,0.1-1.3,0.4
				c-0.4,0.3-0.6,0.8-0.6,1.2L440.8,45.9z"/>
			<path id="Trazado_2774" class="st5" d="M447.1,51.5c-0.6-0.3-1.2-0.7-1.6-1.2c-0.4-0.5-0.6-1.1-0.6-1.7h3c0,0.3,0.2,0.6,0.5,0.8
				c0.3,0.2,0.7,0.3,1,0.3c0.3,0,0.6-0.1,0.9-0.2c0.2-0.1,0.3-0.3,0.3-0.6c0-0.3-0.2-0.5-0.4-0.6c-0.5-0.2-0.9-0.3-1.4-0.4
				c-0.6-0.1-1.2-0.3-1.8-0.5c-0.5-0.2-0.9-0.5-1.2-0.9c-0.4-0.4-0.5-1-0.5-1.6c0-0.5,0.2-1.1,0.5-1.5c0.3-0.5,0.8-0.9,1.4-1.1
				c0.7-0.3,1.4-0.4,2.1-0.4c1-0.1,2.1,0.3,2.9,0.9c0.7,0.6,1.1,1.5,1.2,2.4h-2.8c0-0.3-0.2-0.6-0.4-0.8c-0.3-0.2-0.6-0.3-1-0.3
				c-0.3,0-0.6,0.1-0.8,0.2c-0.2,0.1-0.3,0.3-0.3,0.6c0,0.3,0.2,0.5,0.4,0.6c0.4,0.2,0.9,0.3,1.4,0.4c0.6,0.1,1.2,0.3,1.8,0.6
				c0.5,0.2,0.9,0.5,1.2,0.9c0.4,0.5,0.6,1,0.5,1.6c0,0.6-0.2,1.1-0.5,1.5c-0.4,0.5-0.8,0.8-1.4,1.1c-0.7,0.3-1.4,0.4-2.1,0.4
				C448.6,51.9,447.8,51.8,447.1,51.5"/>
			<path id="Trazado_2775" class="st5" d="M460.7,49.2v2.5h-1.5c-0.9,0.1-1.8-0.2-2.5-0.8c-0.7-0.7-1-1.6-0.9-2.6v-3.9h-1.2V42h1.2
				v-2.4h3V42h2v2.5h-2v3.9c0,0.2,0.1,0.5,0.2,0.6c0.2,0.1,0.5,0.2,0.7,0.2L460.7,49.2z"/>
			<path id="Trazado_2776" class="st6" d="M466,44.2c0.3-0.7,0.9-1.3,1.6-1.8c0.7-0.4,1.4-0.6,2.2-0.6c0.6,0,1.3,0.1,1.8,0.4
				c0.5,0.3,0.9,0.6,1.2,1.1V42h3v9.8h-3v-1.4c-0.3,0.5-0.7,0.8-1.2,1.1c-0.6,0.3-1.2,0.4-1.8,0.4c-0.8,0-1.5-0.2-2.2-0.6
				c-0.7-0.4-1.2-1-1.6-1.8C465.2,47.8,465.2,45.9,466,44.2 M472.1,45.1c-0.8-0.8-2.1-0.9-3-0.1c0,0,0,0,0,0c0,0,0,0-0.1,0.1
				c-0.4,0.5-0.7,1.1-0.6,1.8c0,0.7,0.2,1.3,0.6,1.8c0.8,0.8,2.1,0.9,3,0.1l0.1-0.1C473,47.6,473,46.1,472.1,45.1"/>
			<path id="Trazado_2777" class="st6" d="M479.6,51.5c-0.6-0.3-1.2-0.7-1.6-1.2c-0.4-0.5-0.6-1.1-0.6-1.7h3c0,0.3,0.2,0.6,0.5,0.8
				c0.3,0.2,0.7,0.3,1,0.3c0.3,0,0.6-0.1,0.9-0.2c0.2-0.1,0.3-0.3,0.3-0.6c0-0.3-0.2-0.5-0.4-0.6c-0.5-0.2-0.9-0.3-1.4-0.4
				c-0.6-0.1-1.2-0.3-1.8-0.5c-0.5-0.2-0.9-0.5-1.2-0.9c-0.4-0.4-0.5-1-0.5-1.6c0-0.5,0.2-1.1,0.5-1.5c0.3-0.5,0.8-0.9,1.4-1.1
				c0.7-0.3,1.4-0.4,2.1-0.4c1-0.1,2.1,0.3,2.9,0.9c0.7,0.6,1.1,1.5,1.2,2.4h-2.8c0-0.3-0.2-0.6-0.4-0.8c-0.3-0.2-0.6-0.3-1-0.3
				c-0.3,0-0.6,0.1-0.8,0.2c-0.2,0.1-0.3,0.3-0.3,0.6c0,0.3,0.2,0.5,0.4,0.6c0.4,0.2,0.9,0.3,1.4,0.4c0.6,0.1,1.2,0.3,1.8,0.6
				c0.5,0.2,0.9,0.5,1.2,0.9c0.4,0.5,0.6,1,0.5,1.6c0,0.6-0.2,1.1-0.5,1.5c-0.4,0.5-0.8,0.8-1.4,1.1c-0.7,0.3-1.4,0.4-2.1,0.4
				C481.1,51.9,480.4,51.8,479.6,51.5"/>
			<path id="Trazado_2778" class="st6" d="M493.7,51.8l-3-4.1v4.1h-3v-13h3V46l3-4h3.7l-4.1,4.9l4.1,4.9L493.7,51.8z"/>
		</g>
		<path id="Trazado_2779" class="st5" d="M309.6,64.6l9.1,6.8l6.9-9.2c2.1-2.9,1.6-6.9-1.3-9.1c-2.5-1.9-5.9-1.7-8.2,0.4
			c-2.8-1.2-6-0.3-7.8,2.2c-2.1,2.8-1.6,6.7,1.2,8.9c0,0,0,0,0,0L309.6,64.6 M310.9,57.6c0.6-0.8,1.6-1.3,2.6-1.3
			c0.7,0,1.3,0.2,1.9,0.6l1.3,1l1-1.3l0.1-0.2c0.5-0.7,1.3-1.2,2.1-1.3c0.9-0.1,1.7,0.1,2.4,0.6c0.7,0.5,1.2,1.3,1.3,2.1
			c0.1,0.9-0.1,1.8-0.7,2.6l-4.9,6.5l-6.5-4.9c-1.4-1-1.7-3-0.7-4.4c0,0,0,0,0,0C310.9,57.7,310.9,57.6,310.9,57.6"/>
		<path id="Trazado_2780" class="st5" d="M316,15.4c10.6,2.3,18.1,12.4,18.1,12.5s7.1,9.9,9,14.7l3-1.2c-2.1-5.2-9.1-15-9.4-15.4
			c-0.3-0.5-8.2-11.2-20.1-13.8c-11.3-2.5-19.7,0.6-22,2l-0.4,0.2l-0.2,0.4c-0.8,1.5-1.4,3-1.8,4.7c-2.3,1.6-5.1,5.3-5.1,7.5
			c0,0.4,0.1,0.8,0.3,1.2c-2.2,2.4-2,3.2-1.8,3.8c0.3,0.9,1.1,1.6,2.1,1.8c0.5,0.1,1,0.2,1.5,0.2c1,0,2-0.2,3-0.6
			c0.1,0.5,0.3,1,0.7,1.4c0.6,0.7,1.6,1.1,2.5,1c1.4-0.1,2.8-0.4,4.2-0.9c1.5-0.5,3.1-0.8,4.6-1c0.9,0,1.9,0,2.9,0.1
			c3.2,0.1,6.2,0.2,8.1-0.5c1-0.5,1.9-1,2.8-1.7c3.5,2.4,13,9.7,16.2,19.5c2.9,9.4,1.7,19.6-3.2,28.1c-3,5.1-7.5,9-12.9,11.3
			c-1,0.4-2.1,0.7-3.2,0.9c1.1-0.8,2-2,2.4-3.3c0.3-1.1,0-3.6-3.4-5c-1.7-0.5-3.5-0.6-5.3-0.5c-2.1,0.2-4.2,0-6.3-0.5
			c-4-1.1-8.3-0.7-12.1,1.1c-1.2,0.7-2.9-0.4-3-0.4l0,0l-12.3-11.9l-2.3,2.3l12.5,12.1c1.3,0.9,4.1,2.2,6.6,0.8
			c3-1.4,6.4-1.7,9.6-0.9c2.4,0.6,4.9,0.8,7.3,0.6c1.3-0.1,2.7,0,4,0.2c1.2,0.5,1.5,1.1,1.5,1.2c-0.1,0.2-1.5,4.6-11.7,1.9
			c0,0-0.1,0-0.1-0.1l0,0c-0.1,0-0.2-0.1-0.4-0.1l-0.4,1.4l-0.9,1.5c0.1,0.1,0.3,0.1,0.4,0.2l0,0l0.1,0c3.2,1.8,6.8,2.7,10.5,2.7
			c2.6,0,5.2-0.5,7.6-1.5c1.3-0.5,2.5-1.1,3.7-1.9c-0.4,0.7-0.9,1.3-1.4,1.8c-5.8,5.8-14.4,7.2-26.9,4.3c-3.8-0.7-7.4-2-10.8-3.8
			c-2.4-1.4-10.7-9.3-14.2-12.6c-2.1-2-2.3-2.2-2.5-2.3l-1.9,2.6c0.2,0.2,1,0.9,2.2,2c6.3,6,12.4,11.7,14.8,13.1
			c3.7,2,7.6,3.4,11.7,4.2c3.9,0.9,7.9,1.5,12,1.5c7.6,0,13.5-2.2,17.9-6.7c2.1-2.1,2.9-3.9,2.5-5.6c-0.1-0.2-0.1-0.4-0.2-0.6
			c3-2.4,5.6-5.3,7.6-8.6c5.4-9.3,6.7-20.4,3.5-30.7c-3.2-10-11.9-17.3-16.4-20.5c1-0.8,2.2-1.3,3.4-1.6l0.2-3.2
			c-1.9-0.1-4.4,1.4-7.6,3.6c-0.9,0.7-1.9,1.3-3,1.8c-1.2,0.5-4.2,0.4-6.8,0.3c-1,0-2-0.1-3-0.1c-1.9,0.1-3.8,0.5-5.6,1.1
			c-1,0.3-2,0.6-3,0.8c0.8-1,1.7-1.8,2.7-2.5c2.1-0.6,4.3-0.9,6.5-1l-0.1-3.2c-0.8,0-8.1,0.3-11.7,3.3c-1,0.9-2.2,1.5-3.5,1.6
			c1.5-1.6,3-3.1,4.6-4.5l9.6-2l-0.7-3.2l-10.3,2.1c0.5-0.6,1.1-1,1.7-1.4c2.8-1,5.6-1.8,8.5-2.5l-0.8-3.1c-0.2,0-3.4,0.8-6.1,1.7
			c0.2-0.4,0.4-0.8,0.5-1.2C298.4,16.1,305.4,13.1,316,15.4"/>
	</g>
</g>
<g id="Capa_1_copia">
	<g id="Grupo_7024_1_" transform="translate(-265.46 -11.357)">
		<g class="st7">
			<path class="st2" d="M361.7,62.2c-1.2,0.8-2.1,3.7-2.2,5.7c-0.1,1.8,0.4,2.5,0.7,2.5c1.1,0,3-3.9,3.8-5.5l0.6-1.1
				c0.1-0.1,0.3-0.2,0.5-0.2c0.4,0,0.4,0.6,0.4,0.9l-0.2,1.3c-0.1,1.1-0.3,2.6-0.7,4.1c0.7-0.5,1.3-0.9,1.7-1.4
				c0.1-0.1,0.3-0.1,0.3-0.1c0.2,0,0.5,0.3,0.4,0.4c0,0,0,0.1-0.1,0.3c-0.5,0.6-1.5,1.2-2.6,2c-0.4,1.9-1.1,4-1.9,5.5
				c-0.9,1.4-2.3,2.2-3.5,2.2c-1,0-1.8-0.5-1.8-1.6c0.1-1.1,1.2-2.4,1.8-3c1.2-1.2,2.6-2.3,4.1-3.2c0.4-1.9,0.5-2,0.6-3.3
				c-0.9,1.7-2.3,3.7-3.7,3.7c-1.6-0.1-1.8-2.2-1.8-3.5c0.1-2.4,1.4-6.4,3.2-6.4c0.3,0,0.6,0.2,0.6,0.4
				C361.9,61.9,361.9,62,361.7,62.2L361.7,62.2z M362.6,72.1c-1,0.7-2.2,1.6-3.1,2.6c-0.4,0.4-1.4,1.5-1.4,2.3
				c0,0.5,0.3,0.7,0.7,0.7C360.9,77.7,362,74.7,362.6,72.1z M362.8,71.4l-0.2,0.8c0.3-0.2,0.5-0.3,0.7-0.5L362.8,71.4z"/>
			<path class="st2" d="M368.2,67.4c0.3-0.2,0.6-0.3,1-0.3c0.9,0,1.4,0.9,1.3,2c0,0.2,0,0.3,0,0.5c0.3-0.2,0.6-0.4,0.9-0.8
				c0.1-0.1,0.3-0.1,0.3-0.1c0.2,0,0.5,0.2,0.5,0.4c0,0.1-0.1,0.2-0.2,0.3c-0.4,0.6-1.1,1-1.8,1.2c-0.5,1.1-1.5,2.1-2.7,2.1
				c-1.1,0-1.7-0.9-1.6-2C365.9,69.3,366.9,67.5,368.2,67.4z M367.6,69.3c-0.2,0.4-0.3,0.9-0.3,1.3c0,0.7,0.2,1.2,0.5,1.2
				c0.4,0,1-0.4,1.4-1.2C368.4,70.6,367.7,70,367.6,69.3z M367.8,68c-0.1,0.3-0.2,0.5-0.2,0.8c0,0.2,0,0.3,0,0.4
				c0.2-0.3,0.4-0.6,0.7-0.9L367.8,68z M369.4,69.9h0.1c0.1-0.2,0.1-0.5,0.1-0.7c0-0.6-0.1-1.2-0.4-1.2c-0.4,0-0.8,0.5-0.8,0.9
				C368.4,69.3,368.7,69.9,369.4,69.9z M369.4,70.7c0.1,0,0.2,0,0.3,0l-0.3-0.4l-0.2,0.4H369.4z M369.7,69.8c-0.1,0-0.1,0-0.2,0
				c0,0.1,0,0.1,0,0.1L369.7,69.8z"/>
			<path class="st2" d="M378.8,68.5c0.2,0,0.4,0.2,0.4,0.4c0,0.1-0.6,1-1.1,1.7c-0.4,0.5-1.4,1.7-2.4,1.7c-0.5,0-1-0.4-1-1.2
				c-0.2,0.4-0.5,0.9-0.7,1.1c-0.5,0.6-1,0.8-1.4,0.8c-1,0-1.5-1.2-1.5-2.7c0.1-1.1,0.7-3.5,1.3-3.5c0.4,0,0.9,0.3,0.8,0.6
				c-0.4,0.6-0.8,1.9-0.8,3c0,0.7,0.1,1.3,0.4,1.3c0.6,0,1.2-1.4,1.7-2.5c0.4-1,0.8-1.9,1.4-1.9c0.4,0,0.6,0.3,0.6,0.8
				c0,0.3-0.2,0.7-0.2,1c-0.2,0.6-0.3,1.2-0.3,1.5c0,0.4,0,0.5,0.1,0.5c0.3,0,1.7-1.6,2.5-2.6C378.5,68.5,378.6,68.5,378.8,68.5z"/>
			<path class="st2" d="M378.3,68.7c0.4-0.5,0.7-1,1-1.5c-0.4-0.3-1-0.7-1-1.3c0-0.6,0.7-1.1,1.3-1.1c0.5,0,1,0.3,1,1.1
				c0,0.3-0.1,0.5-0.3,1l0.2,0.1l0,0c0.6,0.3,1.1,0.6,1.1,1.3c0,0.1-0.1,0.3-0.1,0.5c-0.1,0.4-0.4,0.9-0.6,1.3
				c-0.4,0.7-0.8,1.4-0.8,2.3c0,0.1,0,0.2-0.1,0.2c0.7,0,3.1-3,3.7-3.8c0.5-0.4,1.2-0.1,0.8,0.4c-1.1,1.4-3.4,4.3-4.7,4.3
				c-0.6,0-1-0.4-0.9-1.2c0.1-0.9,0.6-1.8,1-2.6c0.3-0.5,0.6-1,0.6-1.4c0-0.2-0.1-0.4-0.3-0.5c-0.2,0.4-0.6,1-1,1.5
				C378.6,69.7,377.8,69.2,378.3,68.7z M379.6,66.5c0.1-0.2,0.1-0.4,0.1-0.5c0-0.2,0-0.3-0.2-0.3c-0.2,0-0.4,0.1-0.4,0.3
				C379.2,66.1,379.4,66.3,379.6,66.5z M380,66.7l-0.3-0.2c0,0.1-0.1,0.2-0.1,0.3L380,66.7z"/>
			<path class="st2" d="M389.4,65.6c0,0.2,0,0.4,0,0.6c0.2,0.7,1.1,1.7,2,2.6c0.5,0.6,0.9,1,1.2,1.4c0.9-0.5,1.7-1.1,2.2-1.8
				c0-0.1,0.2-0.1,0.3-0.1c0.2,0,0.5,0.2,0.4,0.4c0,0.1-0.1,0.2-0.1,0.3c-0.6,0.7-1.5,1.3-2.4,1.9c0.5,0.8,0.7,1.6,0.6,2.4
				c-0.1,2.9-4.2,5.6-6.9,5.6c-1,0-1.9-0.4-1.9-1.6c0.1-2.8,3.9-4.9,6.3-6.3c0.2-0.1,0.1-0.1,0.3-0.2c-0.3-0.5-0.8-0.9-1.3-1.5h0
				c-1-1-2-2.1-2.2-2.9c-0.1-0.3-0.1-0.6-0.1-0.9c0.1-2.3,2.6-3.8,4.4-3.8c1.2,0,2.2,0.6,2.1,1.7c0,0.5-0.3,1.2-0.9,2.1
				c-0.1,0.1-0.2,0.2-0.4,0.2c-0.3,0-0.5-0.2-0.4-0.4c0,0,0-0.1,0.1-0.2c0.4-0.6,0.7-1.2,0.7-1.6c0-0.6-0.4-0.9-1-0.9
				c-0.7,0-1.7,0.4-2.4,1.1C389.7,64.4,389.4,65,389.4,65.6z M387.2,78c2.3-0.5,5-2.6,5.1-4.7c0-0.6-0.1-1.2-0.4-1.7l-0.3,0.2l0,0
				c-2.2,1.2-5.7,3.2-5.8,5.6c0,0.6,0.3,0.8,0.8,0.8C386.8,78.1,387,78.1,387.2,78L387.2,78z"/>
			<path class="st2" d="M402.4,68.5c0.2,0,0.4,0.2,0.4,0.4c0,0.1-0.6,1-1.1,1.7c-0.4,0.5-1.4,1.7-2.4,1.7c-0.5,0-1-0.4-1-1.2
				c-0.2,0.4-0.5,0.9-0.7,1.1c-0.5,0.6-1,0.8-1.4,0.8c-1,0-1.5-1.2-1.5-2.7c0.1-1.1,0.7-3.5,1.3-3.5c0.4,0,0.9,0.3,0.8,0.6
				c-0.4,0.6-0.8,1.9-0.8,3c0,0.7,0.1,1.3,0.4,1.3c0.6,0,1.2-1.4,1.7-2.5c0.4-1,0.8-1.9,1.4-1.9c0.4,0,0.6,0.3,0.6,0.8
				c0,0.3-0.2,0.7-0.2,1c-0.2,0.6-0.3,1.2-0.3,1.5c0,0.4,0,0.5,0.1,0.5c0.3,0,1.7-1.6,2.5-2.6C402.1,68.5,402.2,68.5,402.4,68.5z"/>
			<path class="st2" d="M401.9,68.7c0.4-0.5,0.7-1,1-1.5c-0.4-0.3-1-0.7-1-1.3c0-0.6,0.7-1.1,1.3-1.1c0.5,0,1,0.3,1,1.1
				c0,0.3-0.1,0.5-0.3,1l0.2,0.1l0,0c0.6,0.3,1.1,0.6,1.1,1.3c0,0.1-0.1,0.3-0.1,0.5c-0.1,0.4-0.4,0.9-0.6,1.3
				c-0.4,0.7-0.8,1.4-0.8,2.3c0,0.1,0,0.2-0.1,0.2c0.7,0,3.1-3,3.7-3.8c0.5-0.4,1.2-0.1,0.8,0.4c-1.1,1.4-3.4,4.3-4.7,4.3
				c-0.6,0-1-0.4-0.9-1.2c0.1-0.9,0.6-1.8,1-2.6c0.3-0.5,0.6-1,0.6-1.4c0-0.2-0.1-0.4-0.3-0.5c-0.2,0.4-0.6,1-1,1.5
				C402.2,69.7,401.4,69.2,401.9,68.7z M403.2,66.5c0.1-0.2,0.1-0.4,0.1-0.5c0-0.2,0-0.3-0.2-0.3c-0.2,0-0.4,0.1-0.4,0.3
				C402.8,66.1,403,66.3,403.2,66.5z M403.6,66.7l-0.3-0.2c0,0.1-0.1,0.2-0.1,0.3L403.6,66.7z"/>
			<path class="st2" d="M407.3,68.7c0.4-0.5,0.7-1,1-1.5c-0.4-0.3-1-0.7-1-1.3c0-0.6,0.7-1.1,1.3-1.1c0.5,0,1,0.3,1,1.1
				c0,0.3-0.1,0.5-0.3,1l0.2,0.1l0,0c0.6,0.3,1.1,0.6,1.1,1.3c0,0.1-0.1,0.3-0.1,0.5c-0.1,0.4-0.4,0.9-0.6,1.3
				c-0.4,0.7-0.8,1.4-0.8,2.3c0,0.1,0,0.2-0.1,0.2c0.7,0,3.1-3,3.7-3.8c0.5-0.4,1.2-0.1,0.8,0.4c-1.1,1.4-3.4,4.3-4.7,4.3
				c-0.6,0-1-0.4-0.9-1.2c0.1-0.9,0.6-1.8,1-2.6c0.3-0.5,0.6-1,0.6-1.4c0-0.2-0.1-0.4-0.3-0.5c-0.2,0.4-0.6,1-1,1.5
				C407.6,69.7,406.8,69.2,407.3,68.7z M408.6,66.5c0.1-0.2,0.1-0.4,0.1-0.5c0-0.2,0-0.3-0.2-0.3c-0.2,0-0.4,0.1-0.4,0.3
				C408.2,66.1,408.4,66.3,408.6,66.5z M408.9,66.7l-0.3-0.2c0,0.1-0.1,0.2-0.1,0.3L408.9,66.7z"/>
			<path class="st2" d="M414.4,67.4c0.3-0.2,0.6-0.3,1-0.3c0.9,0,1.4,0.9,1.3,2c0,0.2,0,0.3,0,0.5c0.3-0.2,0.6-0.4,0.9-0.8
				c0.1-0.1,0.3-0.1,0.3-0.1c0.2,0,0.5,0.2,0.5,0.4c0,0.1-0.1,0.2-0.2,0.3c-0.4,0.6-1.1,1-1.8,1.2c-0.5,1.1-1.5,2.1-2.7,2.1
				c-1.1,0-1.7-0.9-1.6-2C412.1,69.3,413.1,67.5,414.4,67.4z M413.8,69.3c-0.2,0.4-0.3,0.9-0.3,1.3c0,0.7,0.2,1.2,0.5,1.2
				c0.4,0,1-0.4,1.4-1.2C414.6,70.6,414,70,413.8,69.3z M414,68c-0.1,0.3-0.2,0.5-0.2,0.8c0,0.2,0,0.3,0,0.4
				c0.2-0.3,0.4-0.6,0.7-0.9L414,68z M415.6,69.9h0.1c0.1-0.2,0.1-0.5,0.1-0.7c0-0.6-0.1-1.2-0.4-1.2c-0.4,0-0.8,0.5-0.8,0.9
				C414.6,69.3,414.9,69.9,415.6,69.9z M415.6,70.7c0.1,0,0.2,0,0.3,0l-0.3-0.4l-0.2,0.4H415.6z M415.9,69.8c-0.1,0-0.1,0-0.2,0
				c0,0.1,0,0.1,0,0.1L415.9,69.8z"/>
			<path class="st2" d="M420.1,69.7c0.5-0.5,0.8-0.9,1.2-0.9c0.5,0,0.5,0.6,0.4,1.2c0,0.2,0,0.3,0,0.4c0.6-0.6,1.3-1.2,1.8-1.9
				c0.1-0.1,0.2-0.1,0.3-0.1c0.2,0,0.4,0.2,0.4,0.4c0,0,0,0.1-0.1,0.3c-0.7,0.8-1.6,1.7-2.5,2.4c-0.3,2.1-1.8,7.3-4,7.3
				c-0.7,0-1.2-0.7-1.2-1.6c0.1-2,2.7-4.6,3.8-5.6c0-0.3,0.1-0.6,0.1-0.9c-0.6,0.6-1.3,1.2-2.1,1.2c-1.9,0-0.9-2.7-0.3-3.6
				c1.2-1.6,3.4-2.2,4.3-0.2c0,0.3-0.1,0.5-0.6,0.5c-0.3-0.3-0.6-0.9-1.1-0.9c-0.9,0-2.1,1.7-2.1,2.9c0,0.4,0.1,0.5,0.1,0.5
				c0.1,0,0.3-0.1,0.5-0.2C419.4,70.5,419.8,70.1,420.1,69.7z M420,73c-1.1,1.1-2.6,2.9-2.6,4.3c0,0.4,0,0.7,0.1,0.7
				c0.1,0,0.4-0.4,0.6-0.6l0.1-0.1C419,76.3,419.6,74.6,420,73z M420.2,72.1L420,73c0.3-0.3,0.5-0.5,0.7-0.7L420.2,72.1z"/>
			<path class="st2" d="M427.9,68.2c0,0.2-0.2,0.4-0.5,0.4c-0.2,0-0.3-0.2-0.4-0.3l-0.4-0.4c-0.1-0.1-0.3-0.1-0.3-0.1
				c-1,0-2.1,1.7-2.2,2.7c0,0.4,0.1,0.5,0.1,0.5c0.5,0,1.5-1.1,2-1.6h0c0.4-0.4,0.6-0.6,0.8-0.6c0.2,0,0.4,0.2,0.4,0.4
				c0,0.1-0.1,0.4-0.3,0.7c-0.2,0.6-0.6,1.5-0.7,2.1c0,0.2,0,0.3,0,0.3c0.6,0,2.3-2.2,3.1-3.4l0.3-0.3c0.1-0.1,0.2-0.1,0.4-0.1
				c0.3,0,0.4,0.2,0.4,0.4c0,0.1-0.1,0.2-0.3,0.5c-0.9,1.1-2.6,3.4-3.7,3.7c-0.2,0-0.3,0.1-0.5,0.1c-0.4,0-0.7-0.2-0.9-0.7l0-0.1
				v0.1c0-0.1,0-0.2,0-0.4c0-0.2,0-0.4,0.1-0.7c-0.4,0.3-0.8,0.5-1.3,0.5c-0.6,0-1.2-0.4-1.1-1.4c0.1-1.4,1.5-3.5,3.4-3.5
				c0.3,0,0.6,0,0.9,0.2C427.2,67.2,427.9,67.7,427.9,68.2z"/>
			<path class="st2" d="M433.7,67.9c0,0.1-0.3,1.3-0.7,1.3c-0.3,0-0.4-0.3-0.4-0.4c0,0,0-0.1,0.1-0.2c0.1-0.3,0.2-0.6,0.2-0.8
				c0-0.2-0.1-0.2-0.1-0.2c-1.3,0-2.4,2.3-2.5,3.7c0,0.6,0.1,1,0.4,1c0.8,0,2.4-2.1,3.3-3.3c0.1-0.1,0.2-0.2,0.2-0.3
				c0.1-0.1,0.2-0.1,0.4-0.1c0.3,0,0.5,0.2,0.4,0.4c0,0.1,0,0.2-0.1,0.2c-1.2,1.7-3,4.1-4.4,4.1c-1,0-1.5-0.9-1.4-2.1
				c0.1-1.8,1.6-4.3,3.6-4.3c0.6,0,1.1,0.2,1.2,0.9V67.9z"/>
			<path class="st2" d="M434.8,71c0,0.4,0,0.8,0,0.8c0.6,0,1.8-3.2,2.6-3.2c0.7,0,0.4,1.6,0.3,2c0.6-0.5,1.2-1.2,1.7-2
				c0.1-0.4,0.8-0.1,0.8,0.2c0,0,0,0.1-0.1,0.2c-0.8,1.1-1.8,2.1-2.6,2.8c-0.3,1.4-0.6,2.9-1.2,4.2c-0.4,0.9-1.5,2.8-2.7,2.8
				c-1.4,0-1.2-1.6-0.8-2.8c0.5-1.6,1.9-2.9,3.2-4l0.2-0.1c0-0.2,0.1-0.3,0.1-0.5c-0.7,0.9-1.2,1.1-1.7,1.1c-0.8,0-1.2-0.7-1.1-1.8
				s0.7-3.3,1.6-3.3c0.4,0,0.8,0.4,0.5,0.7C435.2,68.9,434.9,70.1,434.8,71z M435.9,73.3c-1,0.9-1.7,1.7-2.1,2.8
				c-0.3,0.8-0.6,1.9-0.3,1.9c0.3,0,1-0.8,1.6-2.2C435.4,75.1,435.7,74.2,435.9,73.3z M436.1,72.4c-0.1,0.3-0.1,0.6-0.2,0.9l0.7-0.6
				L436.1,72.4z"/>
			<path class="st2" d="M452,63.6c0,0.3-0.2,0.4-0.5,0.4c-0.2,0-0.3,0-0.4-0.2c-0.3-0.7-0.8-1.5-1.4-1.5c-1.9,0-3.9,4.6-4.5,6.6
				c-0.2,0.7-0.3,1.6-0.4,2.4c-0.1,1.5,0.2,2.8,1.1,2.8c1.6,0,4.5-3.8,6-5.6l0,0c0.1-0.3,0.3-0.3,0.5-0.3c0.3,0,0.4,0.1,0.4,0.4
				c0,0.1-0.1,0.3-0.2,0.4l0.1-0.1c-1.3,1.7-4.5,6.1-6.9,6.1c-1.7,0-2.3-2-2.2-3.9c0-0.9,0.2-1.8,0.4-2.5c0.8-2.6,3.1-7.3,5.7-7.3
				c1.2,0,2,1,2.4,2V63.6z"/>
			<path class="st2" d="M453.9,67.4c0.3-0.2,0.6-0.3,1-0.3c0.9,0,1.4,0.9,1.3,2c0,0.2,0,0.3,0,0.5c0.3-0.2,0.6-0.4,0.9-0.8
				c0.1-0.1,0.3-0.1,0.3-0.1c0.2,0,0.5,0.2,0.5,0.4c0,0.1-0.1,0.2-0.2,0.3c-0.4,0.6-1.1,1-1.8,1.2c-0.5,1.1-1.5,2.1-2.7,2.1
				c-1.1,0-1.7-0.9-1.6-2C451.6,69.3,452.6,67.5,453.9,67.4z M453.2,69.3c-0.2,0.4-0.3,0.9-0.3,1.3c0,0.7,0.2,1.2,0.5,1.2
				c0.4,0,1-0.4,1.4-1.2C454,70.6,453.4,70,453.2,69.3z M453.4,68c-0.1,0.3-0.2,0.5-0.2,0.8c0,0.2,0,0.3,0,0.4
				c0.2-0.3,0.4-0.6,0.7-0.9L453.4,68z M455.1,69.9h0.1c0.1-0.2,0.1-0.5,0.1-0.7c0-0.6-0.1-1.2-0.4-1.2c-0.4,0-0.8,0.5-0.8,0.9
				C454.1,69.3,454.4,69.9,455.1,69.9z M455.1,70.7c0.1,0,0.2,0,0.3,0l-0.3-0.4l-0.2,0.4H455.1z M455.4,69.8c-0.1,0-0.1,0-0.2,0
				c0,0.1,0,0.1,0,0.1L455.4,69.8z"/>
			<path class="st2" d="M458.4,68.1l-0.1,1c0.6-1.4,2.1-2.7,2.1-0.6c0.7-0.7,2.2-1.8,2,0c0,0.3-0.7,4-0.5,4c0.5,0,2.1-2.3,2.8-3.5
				c0.2-0.5,1.1-0.2,0.8,0.3c-1,1.6-2.8,4.1-4,4.1c-1.7,0-0.8-3-0.6-4.1c-0.3,1.5-2.5,2.9-2.3,0.7c-0.7,1.5-0.8,1.7-0.8,1.7h0
				c-0.1,0.3-0.2,0.5-0.8,0.5c-0.3,0-0.6-0.1-0.6-0.5c0.3-1.3,0.4-2.5,0.6-3.6C457.3,67.5,458.4,67.5,458.4,68.1z"/>
			<path class="st2" d="M466.1,68.1l-0.1,1c0.6-1.4,2.1-2.7,2.1-0.6c0.7-0.7,2.2-1.8,2,0c0,0.3-0.7,4-0.5,4c0.5,0,2.1-2.3,2.8-3.5
				c0.2-0.5,1.1-0.2,0.8,0.3c-1,1.6-2.8,4.1-4,4.1c-1.7,0-0.8-3-0.6-4.1c-0.3,1.5-2.5,2.9-2.3,0.7c-0.7,1.5-0.8,1.7-0.8,1.7h0
				c-0.1,0.3-0.2,0.5-0.8,0.5c-0.3,0-0.6-0.1-0.6-0.5c0.3-1.3,0.4-2.5,0.6-3.6C465,67.5,466.1,67.5,466.1,68.1z"/>
			<path class="st2" d="M479.9,68.5c0.2,0,0.4,0.2,0.4,0.4c0,0.1-0.6,1-1.1,1.7c-0.4,0.5-1.4,1.7-2.4,1.7c-0.5,0-1-0.4-1-1.2
				c-0.2,0.4-0.5,0.9-0.7,1.1c-0.5,0.6-1,0.8-1.4,0.8c-1,0-1.5-1.2-1.5-2.7c0.1-1.1,0.7-3.5,1.3-3.5c0.4,0,0.9,0.3,0.8,0.6
				c-0.4,0.6-0.8,1.9-0.8,3c0,0.7,0.1,1.3,0.4,1.3c0.6,0,1.2-1.4,1.7-2.5c0.4-1,0.8-1.9,1.4-1.9c0.4,0,0.6,0.3,0.6,0.8
				c0,0.3-0.2,0.7-0.2,1c-0.2,0.6-0.3,1.2-0.3,1.5c0,0.4,0,0.5,0.1,0.5c0.3,0,1.7-1.6,2.5-2.6C479.7,68.5,479.8,68.5,479.9,68.5z"/>
			<path class="st2" d="M479,71.2c0.4-1.4,0.6-2.8,1-4.2c0.1-0.2,0.4-0.4,0.7-0.4s0.7,0.1,0.7,0.5c0,0.3-0.2,1-0.4,1.8
				c0.7-0.9,1.6-1.8,2.2-1.8c1.2,0,0.4,2.1,0.2,2.5c-0.2,0.5-0.6,1.8-0.7,2.4c1-1,1.8-2.3,2.6-3.4c0.3-0.3,0.8-0.2,0.8,0.2
				c0,0.1,0,0.1-0.6,0.9c-0.6,0.8-1.4,1.9-2.1,2.6c-0.7,0.7-2.1,1.2-2-0.3c0.1-1.3,0.7-2.4,1-3.5c-0.7,0.8-1.4,1.9-2.1,3
				C479.8,71.7,479,71.7,479,71.2z"/>
			<path class="st2" d="M485.5,67.2c0.1-0.3,0.4-0.4,0.7-0.4c0.5,0,0.6,0.2,0.6,0.5c-0.6,1.6-1,3.5-1.1,4.5c0,0.1,0,0.3-0.1,0.3
				c0.4,0,1.7-1.7,2.5-2.9c0.5-0.7,0.6-0.7,0.7-0.7c0.2,0,0.5,0.1,0.5,0.4c0,0.3-0.8,1.1-1,1.4c-1,1.3-2.2,2.7-3.1,2.7
				C483.6,73,485.2,67.9,485.5,67.2L485.5,67.2z M487.5,65.1c0,0.4-0.4,0.7-0.8,0.7s-0.8-0.3-0.8-0.7c0-0.5,0.5-0.7,0.8-0.7
				C487.1,64.4,487.5,64.7,487.5,65.1z"/>
			<path class="st2" d="M491.2,62c0.1-0.2,0.4-0.3,0.6-0.3c0.3,0,0.7,0.3,0.6,0.6c0,0,0,0.1,0,0.2c-0.2,0.4-0.3,0.6-0.5,1.2
				c0.2,0,0.3,0.1,0.5,0.1c0.5,0.1,1.1,0.1,1.6,0.1c0.3,0,0.6-0.1,0.7-0.2c0.2-0.1,0.3-0.1,0.4-0.1c0.3,0,0.4,0.2,0.4,0.4
				c0,0.4-1,0.6-1.6,0.6c-0.6,0-1.1-0.1-1.6-0.1c-0.4,0-0.5-0.1-0.7-0.1c-0.5,1.2-1.3,3.2-1.6,4.3c-0.2,0.6-0.6,2-0.7,3.1
				c0,0.6,0,1.1,0.3,1.1c1,0,3.1-2.7,4.2-4.4l0,0c0.1-0.2,0.3-0.2,0.4-0.2c0.2,0,0.5,0.1,0.4,0.4c0,0.1-0.1,0.2-0.1,0.2
				c-1.2,1.9-3.6,4.8-5.1,4.8c-0.9,0-1.5-0.6-1.4-2c0.1-1.1,0.5-2.5,0.7-3.3c0.3-1.1,1-2.8,1.5-4c-0.3,0.1-0.4,0.2-0.6,0.3h0
				c-0.1,0.1-0.2,0.1-0.3,0.1c-0.2,0-0.4-0.3-0.4-0.4c0-0.5,1.1-0.8,1.7-0.9L491.2,62z"/>
			<path class="st2" d="M494.4,71c0,0.4,0,0.8,0,0.8c0.6,0,1.8-3.2,2.6-3.2c0.7,0,0.4,1.6,0.3,2c0.6-0.5,1.2-1.2,1.7-2
				c0.1-0.4,0.8-0.1,0.8,0.2c0,0,0,0.1-0.1,0.2c-0.8,1.1-1.8,2.1-2.6,2.8c-0.3,1.4-0.6,2.9-1.2,4.2c-0.4,0.9-1.5,2.8-2.7,2.8
				c-1.4,0-1.2-1.6-0.8-2.8c0.5-1.6,1.9-2.9,3.2-4l0.2-0.1c0-0.2,0.1-0.3,0.1-0.5c-0.7,0.9-1.2,1.1-1.7,1.1c-0.8,0-1.2-0.7-1.1-1.8
				s0.7-3.3,1.6-3.3c0.4,0,0.8,0.4,0.5,0.7C494.8,68.9,494.5,70.1,494.4,71z M495.5,73.3c-1,0.9-1.7,1.7-2.1,2.8
				c-0.3,0.8-0.6,1.9-0.3,1.9c0.3,0,1-0.8,1.6-2.2C495.1,75.1,495.3,74.2,495.5,73.3z M495.8,72.4c-0.1,0.3-0.1,0.6-0.2,0.9l0.7-0.6
				L495.8,72.4z"/>
		</g>
		<g id="Grupo_6936_1_">
			<g id="Trazado_2766_1_">
				<path class="st5" d="M365.7,49.2v2.5h-1.5c-0.9,0.1-1.8-0.2-2.5-0.8c-0.7-0.7-1-1.6-0.9-2.6v-3.9h-1.2V42h1.2v-2.4h3V42h2v2.5
					h-2v3.9c0,0.2,0.1,0.5,0.2,0.6c0.2,0.1,0.5,0.2,0.7,0.2L365.7,49.2z"/>
			</g>
			<g id="Trazado_2767_1_">
				<path class="st5" d="M376.1,43c0.7,0.9,1.1,1.9,1,3.1v5.7h-3v-5.3c0-0.6-0.1-1.1-0.5-1.5c-0.8-0.7-2-0.7-2.7,0
					c-0.4,0.4-0.5,1-0.5,1.5v5.3h-3v-13h3v4.5c0.3-0.4,0.7-0.8,1.2-1c0.6-0.3,1.2-0.4,1.8-0.4C374.4,41.8,375.4,42.2,376.1,43"/>
			</g>
			<g id="Trazado_2768_1_">
				<path class="st5" d="M388.4,47.6h-6.8c0,0.5,0.2,1,0.6,1.4c0.3,0.3,0.8,0.5,1.3,0.5c0.7,0,1.3-0.3,1.6-0.9h3.2
					c-0.3,1.3-1.3,2.4-2.5,2.9c-0.7,0.3-1.4,0.5-2.2,0.4c-0.9,0-1.8-0.2-2.6-0.6c-0.7-0.4-1.4-1-1.8-1.8c-0.4-0.8-0.7-1.7-0.6-2.7
					c0-0.9,0.2-1.8,0.6-2.7c0.4-0.7,1-1.4,1.7-1.8c1.6-0.8,3.5-0.8,5.1,0c0.7,0.4,1.3,1,1.7,1.7c0.4,0.8,0.6,1.7,0.6,2.6
					C388.4,47,388.4,47.3,388.4,47.6 M385.3,45.9c0-0.5-0.2-0.9-0.5-1.2c-0.4-0.3-0.8-0.5-1.3-0.5c-0.5,0-0.9,0.1-1.3,0.4
					c-0.4,0.3-0.6,0.8-0.6,1.2L385.3,45.9z"/>
			</g>
			<g id="Trazado_2769_1_">
				<path class="st5" d="M397.9,42.2c0.6-0.3,1.2-0.4,1.8-0.4c0.8,0,1.5,0.2,2.2,0.6c0.7,0.4,1.2,1,1.6,1.8c0.8,1.7,0.8,3.6,0,5.3
					c-0.3,0.7-0.9,1.3-1.6,1.8c-0.7,0.4-1.4,0.6-2.2,0.6c-0.6,0-1.2-0.1-1.8-0.4c-0.5-0.3-0.9-0.6-1.2-1.1v1.4h-3v-13h3v4.6
					C397,42.9,397.4,42.5,397.9,42.2 M400.4,45.1c-0.4-0.4-1-0.7-1.5-0.6c-0.6,0-1.1,0.2-1.5,0.6c-0.8,1-0.8,2.5,0,3.5
					c0.8,0.8,2.1,0.9,3,0.1c0,0,0,0,0.1-0.1c0.4-0.5,0.7-1.1,0.6-1.8C401,46.2,400.8,45.6,400.4,45.1"/>
			</g>
			<g id="Trazado_2770_1_">
				<path class="st5" d="M405.8,40.5c-0.3-0.3-0.5-0.7-0.5-1.1c0-0.4,0.2-0.9,0.5-1.2c0.7-0.6,1.8-0.6,2.6,0
					c0.3,0.3,0.5,0.7,0.5,1.2c0,0.4-0.2,0.9-0.5,1.1c-0.3,0.3-0.8,0.5-1.3,0.5C406.6,41,406.2,40.8,405.8,40.5 M408.6,51.8h-3V42h3
					V51.8z"/>
			</g>
			<g id="Trazado_2771_1_">
				<path class="st5" d="M416.3,42.2c0.5,0.3,0.9,0.6,1.2,1.1V42h3v9.8c0,0.8-0.2,1.7-0.5,2.4c-0.4,0.7-0.9,1.3-1.6,1.7
					c-0.8,0.5-1.8,0.7-2.7,0.6c-1.3,0.1-2.5-0.3-3.5-1c-0.9-0.7-1.5-1.7-1.5-2.8h3c0.1,0.4,0.3,0.7,0.7,0.9c0.4,0.2,0.8,0.3,1.3,0.3
					c0.5,0,1.1-0.2,1.5-0.5c0.4-0.5,0.6-1.1,0.6-1.7v-1.4c-0.3,0.5-0.7,0.8-1.2,1.1c-0.6,0.3-1.2,0.4-1.8,0.4
					c-0.8,0-1.5-0.2-2.2-0.6c-0.7-0.4-1.2-1-1.6-1.8c-0.8-1.7-0.8-3.6,0-5.3c0.3-0.7,0.9-1.3,1.6-1.8c0.7-0.4,1.4-0.6,2.2-0.6
					C415.1,41.8,415.8,42,416.3,42.2 M416.9,45.1c-0.8-0.8-2.1-0.9-3-0.1l-0.1,0.1c-0.4,0.5-0.7,1.1-0.6,1.8c0,0.7,0.2,1.3,0.6,1.8
					c0.8,0.8,2.1,0.9,3,0.1l0.1-0.1C417.7,47.6,417.7,46.1,416.9,45.1"/>
			</g>
			<g id="Trazado_2772_1_">
				<path class="st5" d="M428.2,42.2c0.5,0.3,0.9,0.6,1.2,1.1V42h3v9.8c0,0.8-0.2,1.7-0.5,2.4c-0.4,0.7-0.9,1.3-1.6,1.7
					c-0.8,0.5-1.8,0.7-2.7,0.6c-1.3,0.1-2.5-0.3-3.5-1c-0.9-0.7-1.5-1.7-1.5-2.8h3c0.1,0.4,0.3,0.7,0.7,0.9c0.4,0.2,0.8,0.3,1.3,0.3
					c0.5,0,1.1-0.2,1.5-0.5c0.4-0.5,0.6-1.1,0.6-1.7v-1.4c-0.3,0.5-0.7,0.8-1.2,1.1c-0.6,0.3-1.2,0.4-1.8,0.4
					c-0.8,0-1.5-0.2-2.2-0.6c-0.7-0.4-1.2-1-1.6-1.8c-0.8-1.7-0.8-3.6,0-5.3c0.3-0.7,0.9-1.3,1.6-1.8c0.7-0.4,1.4-0.6,2.2-0.6
					C427,41.8,427.7,42,428.2,42.2 M428.8,45.1c-0.8-0.8-2.1-0.9-3-0.1c0,0,0,0,0,0l-0.1,0.1c-0.4,0.5-0.7,1.1-0.6,1.8
					c0,0.7,0.2,1.3,0.6,1.8c0.8,0.8,2.1,0.9,3,0.1c0,0,0.1-0.1,0.1-0.1C429.6,47.6,429.6,46.1,428.8,45.1"/>
			</g>
			<g id="Trazado_2773_1_">
				<path class="st5" d="M443.8,47.6H437c0,0.5,0.2,1,0.6,1.4c0.3,0.3,0.8,0.5,1.3,0.5c0.7,0,1.3-0.3,1.6-0.9h3.2
					c-0.3,1.3-1.3,2.4-2.5,2.9c-0.7,0.3-1.4,0.5-2.2,0.4c-0.9,0-1.8-0.2-2.6-0.6c-0.7-0.4-1.4-1-1.8-1.8c-0.4-0.8-0.7-1.7-0.6-2.7
					c0-0.9,0.2-1.8,0.6-2.7c0.4-0.7,1-1.4,1.7-1.8c1.6-0.8,3.5-0.8,5.1,0c0.7,0.4,1.3,1,1.7,1.7c0.4,0.8,0.6,1.7,0.6,2.6
					C443.8,47,443.8,47.3,443.8,47.6 M440.8,45.9c0-0.5-0.2-0.9-0.5-1.2c-0.4-0.3-0.8-0.5-1.3-0.5c-0.5,0-0.9,0.1-1.3,0.4
					c-0.4,0.3-0.6,0.8-0.6,1.2L440.8,45.9z"/>
			</g>
			<g id="Trazado_2774_1_">
				<path class="st5" d="M447.1,51.5c-0.6-0.3-1.2-0.7-1.6-1.2c-0.4-0.5-0.6-1.1-0.6-1.7h3c0,0.3,0.2,0.6,0.5,0.8
					c0.3,0.2,0.7,0.3,1,0.3c0.3,0,0.6-0.1,0.9-0.2c0.2-0.1,0.3-0.3,0.3-0.6c0-0.3-0.2-0.5-0.4-0.6c-0.5-0.2-0.9-0.3-1.4-0.4
					c-0.6-0.1-1.2-0.3-1.8-0.5c-0.5-0.2-0.9-0.5-1.2-0.9c-0.4-0.4-0.5-1-0.5-1.6c0-0.5,0.2-1.1,0.5-1.5c0.3-0.5,0.8-0.9,1.4-1.1
					c0.7-0.3,1.4-0.4,2.1-0.4c1-0.1,2.1,0.3,2.9,0.9c0.7,0.6,1.1,1.5,1.2,2.4h-2.8c0-0.3-0.2-0.6-0.4-0.8c-0.3-0.2-0.6-0.3-1-0.3
					c-0.3,0-0.6,0.1-0.8,0.2c-0.2,0.1-0.3,0.3-0.3,0.6c0,0.3,0.2,0.5,0.4,0.6c0.4,0.2,0.9,0.3,1.4,0.4c0.6,0.1,1.2,0.3,1.8,0.6
					c0.5,0.2,0.9,0.5,1.2,0.9c0.4,0.5,0.6,1,0.5,1.6c0,0.6-0.2,1.1-0.5,1.5c-0.4,0.5-0.8,0.8-1.4,1.1c-0.7,0.3-1.4,0.4-2.1,0.4
					C448.6,51.9,447.8,51.8,447.1,51.5"/>
			</g>
			<g id="Trazado_2775_1_">
				<path class="st5" d="M460.7,49.2v2.5h-1.5c-0.9,0.1-1.8-0.2-2.5-0.8c-0.7-0.7-1-1.6-0.9-2.6v-3.9h-1.2V42h1.2v-2.4h3V42h2v2.5
					h-2v3.9c0,0.2,0.1,0.5,0.2,0.6c0.2,0.1,0.5,0.2,0.7,0.2L460.7,49.2z"/>
			</g>
			<g id="Trazado_2776_1_">
				<path class="st6" d="M466,44.2c0.3-0.7,0.9-1.3,1.6-1.8c0.7-0.4,1.4-0.6,2.2-0.6c0.6,0,1.3,0.1,1.8,0.4c0.5,0.3,0.9,0.6,1.2,1.1
					V42h3v9.8h-3v-1.4c-0.3,0.5-0.7,0.8-1.2,1.1c-0.6,0.3-1.2,0.4-1.8,0.4c-0.8,0-1.5-0.2-2.2-0.6c-0.7-0.4-1.2-1-1.6-1.8
					C465.2,47.8,465.2,45.9,466,44.2 M472.1,45.1c-0.8-0.8-2.1-0.9-3-0.1c0,0,0,0,0,0c0,0,0,0-0.1,0.1c-0.4,0.5-0.7,1.1-0.6,1.8
					c0,0.7,0.2,1.3,0.6,1.8c0.8,0.8,2.1,0.9,3,0.1l0.1-0.1C473,47.6,473,46.1,472.1,45.1"/>
			</g>
			<g id="Trazado_2777_1_">
				<path class="st6" d="M479.6,51.5c-0.6-0.3-1.2-0.7-1.6-1.2c-0.4-0.5-0.6-1.1-0.6-1.7h3c0,0.3,0.2,0.6,0.5,0.8
					c0.3,0.2,0.7,0.3,1,0.3c0.3,0,0.6-0.1,0.9-0.2c0.2-0.1,0.3-0.3,0.3-0.6c0-0.3-0.2-0.5-0.4-0.6c-0.5-0.2-0.9-0.3-1.4-0.4
					c-0.6-0.1-1.2-0.3-1.8-0.5c-0.5-0.2-0.9-0.5-1.2-0.9c-0.4-0.4-0.5-1-0.5-1.6c0-0.5,0.2-1.1,0.5-1.5c0.3-0.5,0.8-0.9,1.4-1.1
					c0.7-0.3,1.4-0.4,2.1-0.4c1-0.1,2.1,0.3,2.9,0.9c0.7,0.6,1.1,1.5,1.2,2.4h-2.8c0-0.3-0.2-0.6-0.4-0.8c-0.3-0.2-0.6-0.3-1-0.3
					c-0.3,0-0.6,0.1-0.8,0.2c-0.2,0.1-0.3,0.3-0.3,0.6c0,0.3,0.2,0.5,0.4,0.6c0.4,0.2,0.9,0.3,1.4,0.4c0.6,0.1,1.2,0.3,1.8,0.6
					c0.5,0.2,0.9,0.5,1.2,0.9c0.4,0.5,0.6,1,0.5,1.6c0,0.6-0.2,1.1-0.5,1.5c-0.4,0.5-0.8,0.8-1.4,1.1c-0.7,0.3-1.4,0.4-2.1,0.4
					C481.1,51.9,480.4,51.8,479.6,51.5"/>
			</g>
			<g id="Trazado_2778_1_">
				<path class="st6" d="M493.7,51.8l-3-4.1v4.1h-3v-13h3V46l3-4h3.7l-4.1,4.9l4.1,4.9L493.7,51.8z"/>
			</g>
		</g>
		<g id="Trazado_2779_1_">
			<path class="st5" d="M309.6,64.6l9.1,6.8l6.9-9.2c2.1-2.9,1.6-6.9-1.3-9.1c-2.5-1.9-5.9-1.7-8.2,0.4c-2.8-1.2-6-0.3-7.8,2.2
				c-2.1,2.8-1.6,6.7,1.2,8.9c0,0,0,0,0,0L309.6,64.6 M310.9,57.6c0.6-0.8,1.6-1.3,2.6-1.3c0.7,0,1.3,0.2,1.9,0.6l1.3,1l1-1.3
				l0.1-0.2c0.5-0.7,1.3-1.2,2.1-1.3c0.9-0.1,1.7,0.1,2.4,0.6c0.7,0.5,1.2,1.3,1.3,2.1c0.1,0.9-0.1,1.8-0.7,2.6l-4.9,6.5l-6.5-4.9
				c-1.4-1-1.7-3-0.7-4.4c0,0,0,0,0,0C310.9,57.7,310.9,57.6,310.9,57.6"/>
		</g>
		<g id="Trazado_2780_1_">
			<path class="st5" d="M316,15.4c10.6,2.3,18.1,12.4,18.1,12.5s7.1,9.9,9,14.7l3-1.2c-2.1-5.2-9.1-15-9.4-15.4
				c-0.3-0.5-8.2-11.2-20.1-13.8c-11.3-2.5-19.7,0.6-22,2l-0.4,0.2l-0.2,0.4c-0.8,1.5-1.4,3-1.8,4.7c-2.3,1.6-5.1,5.3-5.1,7.5
				c0,0.4,0.1,0.8,0.3,1.2c-2.2,2.4-2,3.2-1.8,3.8c0.3,0.9,1.1,1.6,2.1,1.8c0.5,0.1,1,0.2,1.5,0.2c1,0,2-0.2,3-0.6
				c0.1,0.5,0.3,1,0.7,1.4c0.6,0.7,1.6,1.1,2.5,1c1.4-0.1,2.8-0.4,4.2-0.9c1.5-0.5,3.1-0.8,4.6-1c0.9,0,1.9,0,2.9,0.1
				c3.2,0.1,6.2,0.2,8.1-0.5c1-0.5,1.9-1,2.8-1.7c3.5,2.4,13,9.7,16.2,19.5c2.9,9.4,1.7,19.6-3.2,28.1c-3,5.1-7.5,9-12.9,11.3
				c-1,0.4-2.1,0.7-3.2,0.9c1.1-0.8,2-2,2.4-3.3c0.3-1.1,0-3.6-3.4-5c-1.7-0.5-3.5-0.6-5.3-0.5c-2.1,0.2-4.2,0-6.3-0.5
				c-4-1.1-8.3-0.7-12.1,1.1c-1.2,0.7-2.9-0.4-3-0.4l0,0l-12.3-11.9l-2.3,2.3l12.5,12.1c1.3,0.9,4.1,2.2,6.6,0.8
				c3-1.4,6.4-1.7,9.6-0.9c2.4,0.6,4.9,0.8,7.3,0.6c1.3-0.1,2.7,0,4,0.2c1.2,0.5,1.5,1.1,1.5,1.2c-0.1,0.2-1.5,4.6-11.7,1.9
				c0,0-0.1,0-0.1-0.1l0,0c-0.1,0-0.2-0.1-0.4-0.1l-0.4,1.4l-0.9,1.5c0.1,0.1,0.3,0.1,0.4,0.2l0,0l0.1,0c3.2,1.8,6.8,2.7,10.5,2.7
				c2.6,0,5.2-0.5,7.6-1.5c1.3-0.5,2.5-1.1,3.7-1.9c-0.4,0.7-0.9,1.3-1.4,1.8c-5.8,5.8-14.4,7.2-26.9,4.3c-3.8-0.7-7.4-2-10.8-3.8
				c-2.4-1.4-10.7-9.3-14.2-12.6c-2.1-2-2.3-2.2-2.5-2.3l-1.9,2.6c0.2,0.2,1,0.9,2.2,2c6.3,6,12.4,11.7,14.8,13.1
				c3.7,2,7.6,3.4,11.7,4.2c3.9,0.9,7.9,1.5,12,1.5c7.6,0,13.5-2.2,17.9-6.7c2.1-2.1,2.9-3.9,2.5-5.6c-0.1-0.2-0.1-0.4-0.2-0.6
				c3-2.4,5.6-5.3,7.6-8.6c5.4-9.3,6.7-20.4,3.5-30.7c-3.2-10-11.9-17.3-16.4-20.5c1-0.8,2.2-1.3,3.4-1.6l0.2-3.2
				c-1.9-0.1-4.4,1.4-7.6,3.6c-0.9,0.7-1.9,1.3-3,1.8c-1.2,0.5-4.2,0.4-6.8,0.3c-1,0-2-0.1-3-0.1c-1.9,0.1-3.8,0.5-5.6,1.1
				c-1,0.3-2,0.6-3,0.8c0.8-1,1.7-1.8,2.7-2.5c2.1-0.6,4.3-0.9,6.5-1l-0.1-3.2c-0.8,0-8.1,0.3-11.7,3.3c-1,0.9-2.2,1.5-3.5,1.6
				c1.5-1.6,3-3.1,4.6-4.5l9.6-2l-0.7-3.2l-10.3,2.1c0.5-0.6,1.1-1,1.7-1.4c2.8-1,5.6-1.8,8.5-2.5l-0.8-3.1c-0.2,0-3.4,0.8-6.1,1.7
				c0.2-0.4,0.4-0.8,0.5-1.2C298.4,16.1,305.4,13.1,316,15.4"/>
		</g>
	</g>
</g>
</svg>
