<svg xmlns="http://www.w3.org/2000/svg" width="117.078" height="157.749" viewBox="0 0 117.078 157.749">
  <g id="Group_7045" data-name="Group 7045" transform="translate(-581.02 -466.717)">
    <g id="medalla" transform="translate(581.02 466.717)">
      <path id="Path_2857" data-name="Path 2857" d="M40.5,86.216A46.216,46.216,0,1,0,86.716,40,46.268,46.268,0,0,0,40.5,86.216ZM86.716,46.162A40.054,40.054,0,1,1,46.662,86.216,40.1,40.1,0,0,1,86.716,46.162Zm0,0" transform="translate(-28.176 -27.676)" fill="#1b3661"/>
      <path id="Path_2859" data-name="Path 2859" d="M186.662,3.081A3.081,3.081,0,1,1,183.581,0,3.081,3.081,0,0,1,186.662,3.081Zm0,0" transform="translate(-125.041 0)" fill="#1b3661"/>
      <path id="Path_2860" data-name="Path 2860" d="M44.519,5.678A58.545,58.545,0,0,0,19.771,105.809L1.209,138.522a3.081,3.081,0,0,0,3.306,4.537l21.08-4.377L33,159.56a3.08,3.08,0,0,0,5.581.492L59.04,124.091l20.454,35.962a3.08,3.08,0,0,0,2.677,1.557c.09,0,.182,0,.272-.011a3.085,3.085,0,0,0,2.633-2.039l7.408-20.878,21.08,4.377a3.081,3.081,0,0,0,3.306-4.537L98.307,105.809A58.545,58.545,0,0,0,73.56,5.678a3.081,3.081,0,1,0-1.525,5.971,52.377,52.377,0,1,1-25.993,0,3.081,3.081,0,1,0-1.524-5.971Zm-7.96,145.474L30.5,134.09a3.081,3.081,0,0,0-3.53-1.987l-17.046,3.54,14.69-25.89a58.664,58.664,0,0,0,29.254,10.959ZM91.1,132.1a3.082,3.082,0,0,0-3.53,1.987L81.52,151.152,64.205,120.711a58.668,58.668,0,0,0,29.255-10.959l14.69,25.89Zm0,0" transform="translate(-0.5 -3.861)" fill="#1b3661"/>
    </g>
    <g id="ic_star_24px" transform="translate(611.457 496.732)">
      <path id="Path_1975" data-name="Path 1975" d="M0,0H52.153V52.153H0Z" transform="translate(2.517 2.173)" fill="none"/>
      <path id="Path_1976" data-name="Path 1976" d="M30.593,45.661l17.67,10.665-4.689-20.1L59.185,22.7,38.627,20.957,30.593,2,22.558,20.957,2,22.7,17.612,36.225l-4.689,20.1Z" transform="translate(-2 -2)" fill="#fe9900"/>
      <path id="Path_1977" data-name="Path 1977" d="M0,0H52.153V52.153H0Z" transform="translate(2.517 2.173)" fill="none"/>
    </g>
  </g>
</svg>
