<svg id="camera_5_" data-name="camera (5)" xmlns="http://www.w3.org/2000/svg" width="58.978" height="49.561" viewBox="0 0 58.978 49.561">
  <g id="Group_503" data-name="Group 503" transform="translate(0 0)">
    <g id="Group_502" data-name="Group 502">
      <path id="Path_1206" data-name="Path 1206" d="M57.016,52.521a6.154,6.154,0,0,0-4.653-2.095H43.056v-.12a5.561,5.561,0,0,0-1.514-3.891A4.972,4.972,0,0,0,37.9,44.8H21.08a5,5,0,0,0-3.7,1.616,5.668,5.668,0,0,0-1.514,3.891v.12H6.615a6.154,6.154,0,0,0-4.653,2.095A7.36,7.36,0,0,0,0,57.489V87.3a7,7,0,0,0,1.962,4.968,6.465,6.465,0,0,0,4.653,2.095H52.362a6.154,6.154,0,0,0,4.653-2.095A7.36,7.36,0,0,0,58.978,87.3V57.489A7,7,0,0,0,57.016,52.521ZM56.063,87.3h-.056a3.978,3.978,0,0,1-1.065,2.753,3.488,3.488,0,0,1-2.579,1.137H6.615a3.488,3.488,0,0,1-2.579-1.137A3.978,3.978,0,0,1,2.971,87.3V57.489a3.978,3.978,0,0,1,1.065-2.753A3.488,3.488,0,0,1,6.615,53.6h10.82a1.561,1.561,0,0,0,1.514-1.616V50.247a2.439,2.439,0,0,1,.617-1.676,2.13,2.13,0,0,1,1.57-.658H37.9a2.13,2.13,0,0,1,1.57.658,2.439,2.439,0,0,1,.617,1.676v1.736A1.561,1.561,0,0,0,41.6,53.6h10.82A3.488,3.488,0,0,1,55,54.736a3.978,3.978,0,0,1,1.065,2.753Z" transform="translate(0 -44.8)" fill="#a2a2a2"/>
      <path id="Path_1207" data-name="Path 1207" d="M125.791,130.8a13.391,13.391,0,0,0-9.755,4.31,15.454,15.454,0,0,0,0,20.83,13.2,13.2,0,0,0,19.51,0,15.455,15.455,0,0,0,0-20.83A13.391,13.391,0,0,0,125.791,130.8Zm7.625,22.925a10.348,10.348,0,0,1-15.249,0,11.847,11.847,0,0,1-3.139-8.14,12.112,12.112,0,0,1,3.139-8.14,10.385,10.385,0,0,1,7.625-3.352,10.615,10.615,0,0,1,7.625,3.352,11.847,11.847,0,0,1,3.139,8.14A11.594,11.594,0,0,1,133.416,153.725Z" transform="translate(-96.302 -117.931)" fill="#a2a2a2"/>
      <ellipse id="Ellipse_233" data-name="Ellipse 233" cx="2.747" cy="2.933" rx="2.747" ry="2.933" transform="translate(46.7 12.809)" fill="#a2a2a2"/>
    </g>
  </g>
</svg>
