<svg xmlns="http://www.w3.org/2000/svg" width="60.61" height="46" viewBox="0 0 60.61 46">
  <g id="youtube" transform="translate(-21.368 -259.305)">
    <path id="Path_2852" data-name="Path 2852" d="M206.442,114.687l-12.184-7.837a1.936,1.936,0,0,0-2.215.045,2.726,2.726,0,0,0-1.1,2.263V124.7a2.729,2.729,0,0,0,1.09,2.258,1.936,1.936,0,0,0,2.208.059l12.185-7.7a2.869,2.869,0,0,0,.014-4.625Zm-12.264,8.056V111.128l9.106,5.857Zm0,0" transform="translate(-145.686 164.161)" fill="#a2a2a2"/>
    <path id="Path_2853" data-name="Path 2853" d="M60.163,10.857l0-.028c-.051-.489-.562-4.837-2.672-7.049A9.853,9.853,0,0,0,50.956.712c-.11-.013-.211-.024-.3-.036L50.549.664C42.536.081,30.436,0,30.314,0h-.021c-.121,0-12.222.08-20.307.664L9.879.675C9.793.687,9.7.7,9.6.71A9.605,9.605,0,0,0,3.1,3.874C1.092,6.062.512,10.317.452,10.795l-.007.062C.427,11.06,0,15.9,0,20.764v4.545c0,4.862.428,9.7.446,9.908l0,.031C.5,35.728,1.01,40,3.11,42.209a10.054,10.054,0,0,0,6.751,3.026c.246.028.459.052.6.078l.14.019c4.626.441,19.132.658,19.747.667h.037c.121,0,12.221-.08,20.234-.664l.106-.011c.1-.013.215-.025.34-.038A9.383,9.383,0,0,0,57.506,42.2c2.009-2.188,2.59-6.443,2.65-6.921l.007-.062c.018-.2.446-5.046.446-9.907V20.764c0-4.862-.428-9.7-.446-9.907ZM57.057,25.309c0,4.5-.392,9.134-.429,9.559-.151,1.172-.763,3.864-1.742,4.93a5.836,5.836,0,0,1-4.192,1.949c-.137.014-.264.028-.378.043-7.75.562-19.394.648-19.93.651-.6-.009-14.895-.228-19.38-.645-.23-.038-.478-.066-.74-.1a6.634,6.634,0,0,1-4.542-1.9l-.033-.035c-.962-1-1.557-3.521-1.708-4.881-.028-.322-.431-5.01-.431-9.573V20.764c0-4.495.391-9.123.429-9.558.18-1.38.8-3.909,1.742-4.931A6.123,6.123,0,0,1,10,4.245l.289-.035c7.863-.564,19.59-.648,20.011-.651s12.144.087,19.937.651l.313.037A6.354,6.354,0,0,1,54.9,6.222l.014.015c.962,1,1.557,3.566,1.708,4.952.027.3.431,5,.431,9.575Zm0,0" transform="translate(21.369 259.305)" fill="#a2a2a2"/>
  </g>
</svg>
